# xmcd
#
# Track frame offsets: 
#        182
#        16775
#        38567
#        65805
#
# Disc length: 1208 seconds
#
# Revision: 0
# Processed by: cddbd v1.5.2PL0 Copyright (c) Steve Scherf et al.
# Submitted via: ExactAudioCopy v1.0b3
#
DISCID=2904b604
DTITLE=Noir - Lick Me
DYEAR=1900
DGENRE=
TTITLE0=Lick Me (Short Radio Cut)
TTITLE1=Lick Me (Full Erotic Version)
TTITLE2=Lick Me (No Moan Version)
TTITLE3=Lick Me (Half Erotic Version)
EXTD=
EXTT0=
EXTT1=
EXTT2=
EXTT3=
PLAYORDER=
